# xmcd CD database file
#
# Track frame offsets:
#	150
#	13637
#	28070
#	49925
#	66934
#	84730
#	97167
#	116055
#	128076
#	140830
#	163718
#
# Disc length: 2328 seconds
#
# Revision: 0
# Processed by: cddbd v1.5.2PL0 Copyright (c) Steve Scherf et al.
# Submitted via: CDex 1.51
#
DISCID=a009160b
DTITLE=sylvia powell - the script
DYEAR=2009
DGENRE=Jazz
TTITLE0=blue room
TTITLE1=crazy beautiful life
TTITLE2=edge of time
TTITLE3=endless
TTITLE4=full circle
TTITLE5=just to be
TTITLE6=lazy days
TTITLE7=looking for the sun
TTITLE8=tell me tonight
TTITLE9=where has love gone
TTITLE10=the script
EXTD=YEAR: 2009
EXTT0=
EXTT1=
EXTT2=
EXTT3=
EXTT4=
EXTT5=
EXTT6=
EXTT7=
EXTT8=
EXTT9=
EXTT10=
PLAYORDER=
